<?xml version="1.0" encoding="UTF-8" standalone="no"?>
<!DOCTYPE svg PUBLIC "-//W3C//DTD SVG 1.1//EN"
 "http://www.w3.org/Graphics/SVG/1.1/DTD/svg11.dtd">
<!-- Generated by graphviz version 2.30.1 (20180420.1509)
 -->
<!-- Title: Deps Pages: 1 -->
<svg width="292pt" height="318pt"
 viewBox="0.00 0.00 292.00 318.00" xmlns="http://www.w3.org/2000/svg" xmlns:xlink="http://www.w3.org/1999/xlink">
<g id="graph0" class="graph" transform="scale(1 1) rotate(0) translate(4 314)">
<title>Deps</title>
<polygon fill="white" stroke="white" points="-4,5 -4,-314 289,-314 289,5 -4,5"/>
<!-- argp -->
<g id="node1" class="node"><title>argp</title>
<ellipse fill="none" stroke="black" cx="35" cy="-292" rx="27" ry="18"/>
<text text-anchor="middle" x="35" y="-288.3" font-family="Times,serif" font-size="14.00">argp</text>
</g>
<!-- elfutils -->
<g id="node2" class="node"><title>elfutils</title>
<ellipse fill="none" stroke="black" cx="35" cy="-220" rx="35.1455" ry="18"/>
<text text-anchor="middle" x="35" y="-216.3" font-family="Times,serif" font-size="14.00">elfutils</text>
</g>
<!-- argp&#45;&gt;elfutils -->
<g id="edge1" class="edge"><title>argp&#45;&gt;elfutils</title>
<path fill="none" stroke="black" d="M35,-273.697C35,-265.983 35,-256.712 35,-248.112"/>
<polygon fill="black" stroke="black" points="38.5001,-248.104 35,-238.104 31.5001,-248.104 38.5001,-248.104"/>
</g>
<!-- bpftrace -->
<g id="node4" class="node"><title>bpftrace</title>
<polygon fill="none" stroke="black" points="150,-94 56,-94 56,-0 150,-0 150,-94"/>
<polyline fill="none" stroke="black" points="68,-94 56,-82 "/>
<polyline fill="none" stroke="black" points="56,-12 68,-0 "/>
<polyline fill="none" stroke="black" points="138,-0 150,-12 "/>
<polyline fill="none" stroke="black" points="150,-82 138,-94 "/>
<text text-anchor="middle" x="103" y="-43.3" font-family="Times,serif" font-size="14.00">bpftrace</text>
</g>
<!-- elfutils&#45;&gt;bpftrace -->
<g id="edge6" class="edge"><title>elfutils&#45;&gt;bpftrace</title>
<path fill="none" stroke="black" d="M41.6439,-202.292C50.6553,-179.631 67.1931,-138.044 80.8301,-103.751"/>
<polygon fill="black" stroke="black" points="84.1479,-104.879 84.5909,-94.2936 77.6434,-102.292 84.1479,-104.879"/>
</g>
<!-- bcc -->
<g id="node5" class="node"><title>bcc</title>
<ellipse fill="none" stroke="black" cx="131" cy="-148" rx="27" ry="18"/>
<text text-anchor="middle" x="131" y="-144.3" font-family="Times,serif" font-size="14.00">bcc</text>
</g>
<!-- elfutils&#45;&gt;bcc -->
<g id="edge7" class="edge"><title>elfutils&#45;&gt;bcc</title>
<path fill="none" stroke="black" d="M54.427,-204.834C69.0349,-194.183 89.1939,-179.484 105.161,-167.841"/>
<polygon fill="black" stroke="black" points="107.521,-170.452 113.539,-161.732 103.396,-164.796 107.521,-170.452"/>
</g>
<!-- llvm -->
<g id="node3" class="node"><title>llvm</title>
<ellipse fill="none" stroke="black" cx="187" cy="-220" rx="26.949" ry="18"/>
<text text-anchor="middle" x="187" y="-216.3" font-family="Times,serif" font-size="14.00">llvm</text>
</g>
<!-- llvm&#45;&gt;bpftrace -->
<g id="edge2" class="edge"><title>llvm&#45;&gt;bpftrace</title>
<path fill="none" stroke="black" d="M185.411,-201.875C183.191,-183.4 178.107,-153.477 167,-130 162.552,-120.598 156.866,-111.276 150.725,-102.475"/>
<polygon fill="black" stroke="black" points="153.43,-100.244 144.722,-94.2092 147.766,-104.357 153.43,-100.244"/>
</g>
<!-- llvm&#45;&gt;bcc -->
<g id="edge3" class="edge"><title>llvm&#45;&gt;bcc</title>
<path fill="none" stroke="black" d="M174.849,-203.811C167.437,-194.546 157.816,-182.52 149.475,-172.094"/>
<polygon fill="black" stroke="black" points="152.107,-169.782 143.127,-164.159 146.641,-174.154 152.107,-169.782"/>
</g>
<!-- bcc&#45;&gt;bpftrace -->
<g id="edge8" class="edge"><title>bcc&#45;&gt;bpftrace</title>
<path fill="none" stroke="black" d="M126.25,-130.206C124.166,-122.836 121.586,-113.715 118.912,-104.259"/>
<polygon fill="black" stroke="black" points="122.197,-103.013 116.107,-94.3432 115.461,-104.918 122.197,-103.013"/>
</g>
<!-- bccpython -->
<g id="node7" class="node"><title>bccpython</title>
<polygon fill="none" stroke="black" points="279,-94 185,-94 185,-0 279,-0 279,-94"/>
<polyline fill="none" stroke="black" points="197,-94 185,-82 "/>
<polyline fill="none" stroke="black" points="185,-12 197,-0 "/>
<polyline fill="none" stroke="black" points="267,-0 279,-12 "/>
<polyline fill="none" stroke="black" points="279,-82 267,-94 "/>
<text text-anchor="middle" x="232" y="-43.3" font-family="Times,serif" font-size="14.00">bcc + python</text>
</g>
<!-- bcc&#45;&gt;bccpython -->
<g id="edge9" class="edge"><title>bcc&#45;&gt;bccpython</title>
<path fill="none" stroke="black" d="M145.903,-132.392C154.537,-123.929 165.995,-112.698 177.727,-101.199"/>
<polygon fill="black" stroke="black" points="180.352,-103.526 185.044,-94.0266 175.452,-98.5271 180.352,-103.526"/>
</g>
<!-- flex -->
<g id="node6" class="node"><title>flex</title>
<ellipse fill="none" stroke="black" cx="115" cy="-220" rx="27" ry="18"/>
<text text-anchor="middle" x="115" y="-216.3" font-family="Times,serif" font-size="14.00">flex</text>
</g>
<!-- flex&#45;&gt;bpftrace -->
<g id="edge4" class="edge"><title>flex&#45;&gt;bpftrace</title>
<path fill="none" stroke="black" d="M107.108,-202.731C102.574,-192.463 97.3295,-178.771 95,-166 91.3604,-146.046 91.7207,-123.922 93.536,-104.274"/>
<polygon fill="black" stroke="black" points="97.0248,-104.564 94.6044,-94.2491 90.0643,-103.822 97.0248,-104.564"/>
</g>
<!-- flex&#45;&gt;bcc -->
<g id="edge5" class="edge"><title>flex&#45;&gt;bcc</title>
<path fill="none" stroke="black" d="M118.873,-202.055C120.655,-194.261 122.812,-184.822 124.811,-176.079"/>
<polygon fill="black" stroke="black" points="128.235,-176.804 127.051,-166.275 121.411,-175.244 128.235,-176.804"/>
</g>
<!-- python -->
<g id="node8" class="node"><title>python</title>
<ellipse fill="none" stroke="black" cx="249" cy="-148" rx="35.1455" ry="18"/>
<text text-anchor="middle" x="249" y="-144.3" font-family="Times,serif" font-size="14.00">python</text>
</g>
<!-- python&#45;&gt;bccpython -->
<g id="edge10" class="edge"><title>python&#45;&gt;bccpython</title>
<path fill="none" stroke="black" d="M246.039,-129.756C244.795,-122.514 243.272,-113.641 241.692,-104.442"/>
<polygon fill="black" stroke="black" points="245.108,-103.656 239.966,-94.393 238.209,-104.841 245.108,-103.656"/>
</g>
</g>
</svg>
